<svg xmlns="http://www.w3.org/2000/svg" viewBox="0 0 200 200" role="img" aria-label="Cleanser">
  <circle cx="100" cy="100" r="100" fill="#FDF2F8"/>
  <rect x="78" y="50" width="16" height="14" rx="3" fill="#7C3AED"/>
  <path d="M70 64h60c4 0 7 3 7 7v90c0 10-8 18-18 18H81c-10 0-18-8-18-18V71c0-4 3-7 7-7z" fill="#FFFFFF" stroke="#DB2777" stroke-width="4"/>
  <path d="M70 64h60c4 0 7 3 7 7v14H63V71c0-4 3-7 7-7z" fill="#F9A8D4"/>
  <circle cx="100" cy="130" r="20" fill="#FDF2F8"/>
  <path d="M92 122c0-5 4-9 8-13 4 4 8 8 8 13a8 8 0 1 1-16 0z" fill="#DB2777"/>
</svg>
