<svg xmlns="http://www.w3.org/2000/svg" viewBox="0 0 200 200" role="img" aria-label="Toner">
  <circle cx="100" cy="100" r="100" fill="#FDF2F8"/>
  <rect x="90" y="40" width="10" height="18" rx="2" fill="#7C3AED" transform="rotate(-20 95 49)"/>
  <rect x="82" y="52" width="26" height="12" rx="3" fill="#DB2777" transform="rotate(-20 95 58)"/>
  <path d="M74 74h52c4 0 6 3 5 7l-12 88c-1 8-8 14-16 14H97c-8 0-15-6-16-14L69 81c-1-4 1-7 5-7z" fill="#FFFFFF" stroke="#DB2777" stroke-width="4"/>
  <rect x="80" y="100" width="40" height="34" rx="4" fill="#F9A8D4"/>
  <circle cx="100" cy="150" r="4" fill="#7C3AED"/>
  <circle cx="112" cy="160" r="3" fill="#7C3AED"/>
  <circle cx="88" cy="160" r="3" fill="#7C3AED"/>
</svg>
